<?xml version="1.0" encoding="utf-8"?>
<!-- Generator: Adobe Illustrator 27.4.1, SVG Export Plug-In . SVG Version: 6.00 Build 0)  -->
<svg version="1.1" id="Layer_1" xmlns="http://www.w3.org/2000/svg" xmlns:xlink="http://www.w3.org/1999/xlink" x="0px" y="0px"
	 viewBox="0 0 32 32" style="enable-background:new 0 0 32 32;" xml:space="preserve">
<g>
	<path d="M0,17.1c0-0.7,0-1.3,0-2c0-0.4,0.1-0.8,0.1-1.1c0.6-3.8,2.2-7.1,5.1-9.6c3.8-3.4,8.3-4.7,13.4-4c3,0.5,5.7,1.8,8,3.8
		c2.8,2.5,4.5,5.5,5.1,9.2c0.1,0.6,0.2,1.2,0.2,1.8c0,0.6,0,1.3,0,1.9c0,0.1,0,0.2-0.1,0.3c-0.1,0.6-0.1,1.3-0.3,1.9
		c-1.2,6.4-6.5,11.5-12.9,12.6c-0.6,0.1-1.2,0.2-1.8,0.2c-0.7,0-1.3,0-2,0c-0.1,0-0.1,0-0.2-0.1c-1.4-0.1-2.7-0.3-4-0.8
		C5,29,1.5,24.9,0.3,18.8C0.1,18.3,0.1,17.7,0,17.1z M2.7,16c0,7.4,5.9,13.3,13.3,13.3c7.4,0,13.4-6,13.4-13.3
		c0-7.3-6-13.3-13.3-13.3C8.6,2.8,2.7,8.7,2.7,16z"/>
	<path d="M17.3,12.7c0,1,0,2.1,0,3.1c0,0.6-0.2,1-0.7,1.3c-1.7,1-3.3,2.1-5,3.1c-0.7,0.5-1.6,0.2-2-0.6c-0.3-0.6-0.1-1.3,0.6-1.7
		c1.4-0.9,2.8-1.7,4.2-2.6c0.2-0.1,0.3-0.3,0.3-0.5c0-1.8,0-3.6,0-5.4c0-1,0.9-1.6,1.7-1.3c0.5,0.2,0.9,0.7,0.9,1.3
		C17.3,10.5,17.3,11.6,17.3,12.7z"/>
</g>
</svg>
